<?xml version="1.0" encoding="UTF-8" standalone="no"?>
<!DOCTYPE svg PUBLIC "-//W3C//DTD SVG 1.1//EN"
 "http://www.w3.org/Graphics/SVG/1.1/DTD/svg11.dtd">
<!-- Generated by graphviz version 2.38.0 (20140413.2041)
 -->
<!-- Title: Tree Pages: 1 -->
<svg width="313pt" height="269pt"
 viewBox="0.00 0.00 313.00 269.00" xmlns="http://www.w3.org/2000/svg" xmlns:xlink="http://www.w3.org/1999/xlink">
<g id="graph0" class="graph" transform="scale(1 1) rotate(0) translate(4 265)">
<title>Tree</title>
<polygon fill="white" stroke="none" points="-4,4 -4,-265 309,-265 309,4 -4,4"/>
<!-- 0 -->
<g id="node1" class="node"><title>0</title>
<path fill="#e58139" fill-opacity="0.345098" stroke="black" d="M235.5,-261C235.5,-261 129.5,-261 129.5,-261 123.5,-261 117.5,-255 117.5,-249 117.5,-249 117.5,-205 117.5,-205 117.5,-199 123.5,-193 129.5,-193 129.5,-193 235.5,-193 235.5,-193 241.5,-193 247.5,-199 247.5,-205 247.5,-205 247.5,-249 247.5,-249 247.5,-255 241.5,-261 235.5,-261"/>
<text text-anchor="middle" x="182.5" y="-245.8" font-family="Helvetica,sans-Serif" font-size="14.00">spoilers &lt;= 0.106</text>
<text text-anchor="middle" x="182.5" y="-230.8" font-family="Helvetica,sans-Serif" font-size="14.00">gini = 0.478</text>
<text text-anchor="middle" x="182.5" y="-215.8" font-family="Helvetica,sans-Serif" font-size="14.00">samples = 1041</text>
<text text-anchor="middle" x="182.5" y="-200.8" font-family="Helvetica,sans-Serif" font-size="14.00">value = [629, 412]</text>
</g>
<!-- 1 -->
<g id="node2" class="node"><title>1</title>
<path fill="#e58139" fill-opacity="0.996078" stroke="black" d="M162,-157C162,-157 73,-157 73,-157 67,-157 61,-151 61,-145 61,-145 61,-101 61,-101 61,-95 67,-89 73,-89 73,-89 162,-89 162,-89 168,-89 174,-95 174,-101 174,-101 174,-145 174,-145 174,-151 168,-157 162,-157"/>
<text text-anchor="middle" x="117.5" y="-141.8" font-family="Helvetica,sans-Serif" font-size="14.00">game &lt;= 0.351</text>
<text text-anchor="middle" x="117.5" y="-126.8" font-family="Helvetica,sans-Serif" font-size="14.00">gini = 0.006</text>
<text text-anchor="middle" x="117.5" y="-111.8" font-family="Helvetica,sans-Serif" font-size="14.00">samples = 631</text>
<text text-anchor="middle" x="117.5" y="-96.8" font-family="Helvetica,sans-Serif" font-size="14.00">value = [629, 2]</text>
</g>
<!-- 0&#45;&gt;1 -->
<g id="edge1" class="edge"><title>0&#45;&gt;1</title>
<path fill="none" stroke="black" d="M161.396,-192.884C155.89,-184.243 149.885,-174.819 144.133,-165.793"/>
<polygon fill="black" stroke="black" points="147.046,-163.852 138.72,-157.299 141.143,-167.614 147.046,-163.852"/>
<text text-anchor="middle" x="133.312" y="-178.007" font-family="Helvetica,sans-Serif" font-size="14.00">True</text>
</g>
<!-- 4 -->
<g id="node5" class="node"><title>4</title>
<path fill="#399de5" stroke="black" d="M293,-149.5C293,-149.5 204,-149.5 204,-149.5 198,-149.5 192,-143.5 192,-137.5 192,-137.5 192,-108.5 192,-108.5 192,-102.5 198,-96.5 204,-96.5 204,-96.5 293,-96.5 293,-96.5 299,-96.5 305,-102.5 305,-108.5 305,-108.5 305,-137.5 305,-137.5 305,-143.5 299,-149.5 293,-149.5"/>
<text text-anchor="middle" x="248.5" y="-134.3" font-family="Helvetica,sans-Serif" font-size="14.00">gini = 0.0</text>
<text text-anchor="middle" x="248.5" y="-119.3" font-family="Helvetica,sans-Serif" font-size="14.00">samples = 410</text>
<text text-anchor="middle" x="248.5" y="-104.3" font-family="Helvetica,sans-Serif" font-size="14.00">value = [0, 410]</text>
</g>
<!-- 0&#45;&gt;4 -->
<g id="edge4" class="edge"><title>0&#45;&gt;4</title>
<path fill="none" stroke="black" d="M203.928,-192.884C211.116,-181.776 219.142,-169.372 226.381,-158.184"/>
<polygon fill="black" stroke="black" points="229.493,-159.817 231.987,-149.52 223.616,-156.014 229.493,-159.817"/>
<text text-anchor="middle" x="237.225" y="-170.265" font-family="Helvetica,sans-Serif" font-size="14.00">False</text>
</g>
<!-- 2 -->
<g id="node3" class="node"><title>2</title>
<path fill="#e58139" stroke="black" d="M101,-53C101,-53 12,-53 12,-53 6,-53 0,-47 0,-41 0,-41 0,-12 0,-12 0,-6 6,-0 12,-0 12,-0 101,-0 101,-0 107,-0 113,-6 113,-12 113,-12 113,-41 113,-41 113,-47 107,-53 101,-53"/>
<text text-anchor="middle" x="56.5" y="-37.8" font-family="Helvetica,sans-Serif" font-size="14.00">gini = 0.0</text>
<text text-anchor="middle" x="56.5" y="-22.8" font-family="Helvetica,sans-Serif" font-size="14.00">samples = 629</text>
<text text-anchor="middle" x="56.5" y="-7.8" font-family="Helvetica,sans-Serif" font-size="14.00">value = [629, 0]</text>
</g>
<!-- 1&#45;&gt;2 -->
<g id="edge2" class="edge"><title>1&#45;&gt;2</title>
<path fill="none" stroke="black" d="M96.1652,-88.9485C90.4963,-80.1664 84.3618,-70.6629 78.6504,-61.815"/>
<polygon fill="black" stroke="black" points="81.477,-59.7402 73.1131,-53.2367 75.5959,-63.5365 81.477,-59.7402"/>
</g>
<!-- 3 -->
<g id="node4" class="node"><title>3</title>
<path fill="#399de5" stroke="black" d="M216,-53C216,-53 143,-53 143,-53 137,-53 131,-47 131,-41 131,-41 131,-12 131,-12 131,-6 137,-0 143,-0 143,-0 216,-0 216,-0 222,-0 228,-6 228,-12 228,-12 228,-41 228,-41 228,-47 222,-53 216,-53"/>
<text text-anchor="middle" x="179.5" y="-37.8" font-family="Helvetica,sans-Serif" font-size="14.00">gini = 0.0</text>
<text text-anchor="middle" x="179.5" y="-22.8" font-family="Helvetica,sans-Serif" font-size="14.00">samples = 2</text>
<text text-anchor="middle" x="179.5" y="-7.8" font-family="Helvetica,sans-Serif" font-size="14.00">value = [0, 2]</text>
</g>
<!-- 1&#45;&gt;3 -->
<g id="edge3" class="edge"><title>1&#45;&gt;3</title>
<path fill="none" stroke="black" d="M139.185,-88.9485C144.946,-80.1664 151.181,-70.6629 156.986,-61.815"/>
<polygon fill="black" stroke="black" points="160.055,-63.5178 162.615,-53.2367 154.203,-59.6779 160.055,-63.5178"/>
</g>
</g>
</svg>
